<svg id="Layer_1" data-name="Layer 1" xmlns="http://www.w3.org/2000/svg" viewBox="0 0 120 120"><defs><style>.cls-1{fill:#064919;}</style></defs><title>Artboard 1</title><path class="cls-1" d="M50.26,99.53c1.79-.16,3.56-.18,5.34-.19L61,99.24a82.31,82.31,0,0,1,11,.58,1.38,1.38,0,0,1-.21,2.74h0c-1.79-.07-3.57-.12-5.36-.14s-3.56,0-5.35.07l-5.44.16a27.77,27.77,0,0,1-5.51-.37,1.39,1.39,0,0,1,.12-2.75Z"/><path class="cls-1" d="M50.26,89.53c1.78,0,3.56,0,5.35,0L61,89.26c1.83-.07,3.67-.08,5.51,0a42.64,42.64,0,0,1,5.48.57,1.38,1.38,0,0,1-.21,2.74h0c-1.8,0-3.58,0-5.36,0s-3.55,0-5.35,0c-3.58,0-7.28.1-11-.2a1.38,1.38,0,0,1,.13-2.75Z"/><path class="cls-1" d="M49.89,94.74a93.49,93.49,0,0,1,10.85-.13c1.79.09,3.58,0,5.35.08l5.31.2a1.38,1.38,0,0,1,0,2.75h0c-1.8.08-3.6.07-5.39,0s-3.57-.24-5.35-.26a100.17,100.17,0,0,0-10.55.15,1.42,1.42,0,0,1-.23-2.83h0Z"/><path class="cls-1" d="M55.85,104.63c.75,0,1.58,0,2.4,0l2.48-.07c1.67,0,3.33-.12,5-.08a1.31,1.31,0,0,1,.05,2.62h0c-1.66.09-3.34.13-5,.13-.85,0-1.69,0-2.55-.05a23.93,23.93,0,0,1-2.63-.23,1.16,1.16,0,0,1,.22-2.3Z"/><path class="cls-1" d="M58.7,84c0-1.28,0-2.57,0-3.84a35.05,35.05,0,0,0-.31-3.78,19.6,19.6,0,0,0-.79-3.6,10.88,10.88,0,0,0-.7-1.6c-.14-.25-.29-.49-.45-.74a9.71,9.71,0,0,1-.62-1l.06.1c-1.68-2.62-3.27-5.3-5.18-7.77a25.87,25.87,0,0,1-2.44-4.19,14.13,14.13,0,0,1-1.26-5v-.34c0-.14,0-.28,0-.41a4.91,4.91,0,0,1,.11-.76,6.89,6.89,0,0,1,.45-1.35,9.7,9.7,0,0,1,.63-1.19,8.94,8.94,0,0,1,.8-1.13,7,7,0,0,1,5.18-2.14A8.22,8.22,0,0,1,59.35,47a8.73,8.73,0,0,1,1.85,2,6.39,6.39,0,0,1,1.08,2.62v0L60.34,51s0-.09,0-.29a8,8,0,0,1,.18-.85,3.17,3.17,0,0,1,.24-.61l.26-.45a7.67,7.67,0,0,1,.55-.8,8.18,8.18,0,0,1,3.12-2.45,7.09,7.09,0,0,1,4.13-.5,6.3,6.3,0,0,1,3.77,2.17,7.46,7.46,0,0,1,1.59,3.89A11.5,11.5,0,0,1,74,55a19.5,19.5,0,0,1-1.09,3.46A15.09,15.09,0,0,1,71,61.59c-.7,1-1.45,1.81-2.15,2.67s-1.37,1.74-2,2.62l-.51.66c-.18.23-.38.48-.58.71-.4.46-.83.89-1.24,1.28a11.58,11.58,0,0,0-2,2.23,5.88,5.88,0,0,0-.87,2.59,21.78,21.78,0,0,0-.11,3.12c.06,2.15.29,4.36.47,6.57h0a1.45,1.45,0,0,1-2.9.23v0c-.12-2.22-.26-4.43-.3-6.72A24.31,24.31,0,0,1,59,74a10.15,10.15,0,0,1,.42-1.87,9.17,9.17,0,0,1,.85-1.78,14,14,0,0,1,2.39-2.76c.39-.38.74-.74,1.07-1.12.17-.19.31-.37.47-.58l.5-.66a56,56,0,0,0,3.78-5.37,20.22,20.22,0,0,0,1.33-2.71,19.11,19.11,0,0,0,.9-2.89,9.18,9.18,0,0,0,.24-2.76,4.44,4.44,0,0,0-.8-2.23,3.66,3.66,0,0,0-4.23-1,5.86,5.86,0,0,0-2.16,1.5c-.16.17-.31.34-.45.52l-.19.25a.47.47,0,0,0-.09.15c-.07.16-.15.42-.28.75A3,3,0,0,1,62,52.64a1.17,1.17,0,0,1-1.88-.42L60,52.07h0a6.85,6.85,0,0,0-2.32-2.95,6,6,0,0,0-3.54-1.18,4.46,4.46,0,0,0-3.31,1.13,6.8,6.8,0,0,0-1.05,1.64,4.46,4.46,0,0,0-.3.87,2.49,2.49,0,0,0-.06.4c0,.06,0,.12,0,.18l0,.25a9.68,9.68,0,0,0,1.28,4c.35.63.73,1.26,1.13,1.89s.84,1.27,1.23,2c1.45,2.79,3.23,5.37,4.91,8l0,.08v0c0,.08.26.4.45.67s.4.61.58.93a13.88,13.88,0,0,1,.89,2,22.08,22.08,0,0,1,1,4c.23,1.35.34,2.69.46,4s.14,2.67.17,4A1.45,1.45,0,0,1,58.7,84s0,0,0-.06Z"/><path class="cls-1" d="M85.28,74.66a9.37,9.37,0,0,0,1.43,1.05,9,9,0,0,1,2.17,2c.59.73,1.06,1.42,1.5,2a8.09,8.09,0,0,0,1.31,1.45l.13.1a1.39,1.39,0,0,1-1.36,2.38,7,7,0,0,1-2.57-1.77c-.67-.68-1.18-1.37-1.68-1.94a10,10,0,0,0-1.53-1.48,6,6,0,0,1-2-2.57A1.44,1.44,0,0,1,85,74.4Z"/><path class="cls-1" d="M90.71,49.72a38.55,38.55,0,0,1,5.39-.43c.89,0,1.8,0,2.68,0s1.66.09,2.39.08h.08a1.56,1.56,0,0,1,.45,3.06,10.9,10.9,0,0,1-3,.37c-.91,0-1.8,0-2.7-.06a38.55,38.55,0,0,1-5.37-.62,1.24,1.24,0,0,1,0-2.43Z"/><path class="cls-1" d="M82.66,26.88a26,26,0,0,1,1.66-2.26c.6-.73,1.23-1.45,1.92-2.15a16.2,16.2,0,0,1,4.86-3.61,1.12,1.12,0,0,1,1.3,1.75l0,0-3.58,4.18c-.61.71-1.25,1.42-1.95,2.11a13.83,13.83,0,0,1-2.33,1.88,1.37,1.37,0,0,1-1.87-1.9Z"/><path class="cls-1" d="M61.76,9.61a32.35,32.35,0,0,1,.39,5.71A41.22,41.22,0,0,1,61.78,21a1.37,1.37,0,0,1-2.72,0V21a40.35,40.35,0,0,1-.38-5.63A31.66,31.66,0,0,1,59,9.69V9.62a1.37,1.37,0,0,1,2.7,0Z"/><path class="cls-1" d="M30.3,19.72a45.76,45.76,0,0,1,3.93,3.49,29.11,29.11,0,0,1,3.51,3.93h0A1.28,1.28,0,0,1,36.1,29a18.5,18.5,0,0,1-4.32-3.32,23.59,23.59,0,0,1-3.45-4.21,1.34,1.34,0,0,1,2-1.78Z"/><path class="cls-1" d="M18.55,49.78c1.92,0,3.84,0,5.76,0s3.84.12,5.75.31A1.59,1.59,0,0,1,30,53.29H29.9c-1.9.09-3.79.05-5.68,0s-3.78-.12-5.67-.27h-.08a1.62,1.62,0,0,1,.09-3.24Z"/><path class="cls-1" d="M28.17,81.42a34.58,34.58,0,0,1,3.59-4.18,17.07,17.07,0,0,1,4.63-3.48A1.43,1.43,0,0,1,38,76.09l0,0c-1.23,1.16-2.44,2.35-3.72,3.61A35.59,35.59,0,0,1,30,83.3a1.35,1.35,0,0,1-1.88-1.88Z"/><path class="cls-1" d="M60.53,83.7c1.84,0,3.6.12,5.28.12a21.41,21.41,0,0,0,2.44-.12,11.72,11.72,0,0,0,1.16-.16,3.77,3.77,0,0,0,.86-.23.54.54,0,0,0,.29-.29,2.87,2.87,0,0,0,.24-.86c.05-.36.09-.81.13-1.25L71,79.61,71.25,77A10.21,10.21,0,0,1,71.87,74a14.28,14.28,0,0,1,1.38-2.61c.51-.77,1-1.49,1.56-2.22C75.89,67.76,77,66.4,78,65.08A27.51,27.51,0,0,0,80.74,61a18.55,18.55,0,0,0,1.64-4.59A22.24,22.24,0,0,0,82,46.5c-.22-.8-.46-1.6-.75-2.38L81,43.55l-.26-.64-.46-1.13A22.18,22.18,0,0,0,70.16,31.4a22.7,22.7,0,0,0-4.6-1.71,20.31,20.31,0,0,0-4.85-.57,20,20,0,0,0-4.87.66,22.34,22.34,0,0,0-2.33.82,10.11,10.11,0,0,0-1.14.48c-.37.18-.76.33-1.12.53a26.83,26.83,0,0,0-4.16,2.71,35.71,35.71,0,0,0-3.61,3.43,30,30,0,0,0-3,4,19.51,19.51,0,0,0-1.1,2.16,11.39,11.39,0,0,0-.62,2.3,25.73,25.73,0,0,0,.45,9.86,16.49,16.49,0,0,0,1.62,4.43,50.23,50.23,0,0,0,2.85,4.17l3.16,4.21a10.2,10.2,0,0,1,1.46,2.68c.34.9.57,1.68.89,2.39l.29.66c.09.24.18.49.26.73a12.32,12.32,0,0,1,.35,1.46c.18,1,.23,1.89.31,2.78s.13,1.73.24,2.53a7,7,0,0,0,.2,1,.66.66,0,0,0,.22.37,3.3,3.3,0,0,0,1.65.33c.82,0,1.66,0,2.52,0C57,83.83,58.72,83.72,60.53,83.7Zm0,3c-1.7,0-3.44.12-5.23.17-.9,0-1.81,0-2.74,0A10,10,0,0,1,51,86.7a4.31,4.31,0,0,1-1.82-.8A3.68,3.68,0,0,1,48,84.1a9.5,9.5,0,0,1-.32-1.54c-.13-.94-.19-1.85-.26-2.71a20.13,20.13,0,0,0-.31-2.45,9.26,9.26,0,0,0-.28-1.09c-.06-.17-.12-.34-.19-.5l-.25-.54c-.42-.89-.71-1.79-1-2.52a6.89,6.89,0,0,0-1.09-1.9L41.05,66.7a43.47,43.47,0,0,1-3.11-4.49A17.24,17.24,0,0,1,36,56.77a29.64,29.64,0,0,1,.08-11.06,18.69,18.69,0,0,1,.81-2.76c.37-1,.84-1.7,1.25-2.54a32.23,32.23,0,0,1,3.13-4.55A28,28,0,0,1,49.92,29a23.76,23.76,0,0,1,5.21-1.94,26,26,0,0,1,5.53-.81,23.22,23.22,0,0,1,5.59.56,25.28,25.28,0,0,1,5.27,1.89,26.92,26.92,0,0,1,4.71,3,25.88,25.88,0,0,1,3.89,4,24.3,24.3,0,0,1,2.82,4.86l.49,1.32.22.59.23.66c.3.88.54,1.77.76,2.66a28.05,28.05,0,0,1,.45,11,23.71,23.71,0,0,1-1.62,5.39A23.44,23.44,0,0,1,80.59,67c-1.09,1.47-2.27,2.77-3.39,4.08-.57.64-1.12,1.31-1.65,2A8.87,8.87,0,0,0,74.32,75a6.91,6.91,0,0,0-.52,2.18l-.17,2.59-.06,1.32c0,.44,0,.86-.08,1.38a5.6,5.6,0,0,1-.39,1.68,3.43,3.43,0,0,1-1.42,1.65,5.93,5.93,0,0,1-1.63.6c-.48.12-1,.22-1.43.28a20.57,20.57,0,0,1-2.82.17C64,86.86,62.22,86.71,60.55,86.71Z"/></svg>